<svg width="19" height="19" viewBox="0 0 19 19" fill="none" xmlns="http://www.w3.org/2000/svg">
<g id="Facebook " clip-path="url(#clip0_15_2380)">
<path id="Vector" d="M19 9.55806C19 4.27928 14.7467 0 9.5 0C4.25329 0 0 4.27928 0 9.55806C0 14.3287 3.47399 18.283 8.01562 19V12.3209H5.60352V9.55806H8.01562V7.4523C8.01562 5.05681 9.43395 3.73362 11.6039 3.73362C12.643 3.73362 13.7305 3.9203 13.7305 3.9203V6.27247H12.5326C11.3525 6.27247 10.9844 7.0093 10.9844 7.76592V9.55806H13.6191L13.1979 12.3209H10.9844V19C15.526 18.283 19 14.3287 19 9.55806Z" fill="#FCFCFC"/>
</g>
<defs>
<clipPath id="clip0_15_2380">
<rect width="19" height="19" fill="white"/>
</clipPath>
</defs>
</svg>
