<svg width="19" height="19" viewBox="0 0 19 19" fill="none" xmlns="http://www.w3.org/2000/svg">
<g id="Instagram " clip-path="url(#clip0_15_2379)">
<g id="Vector">
<path d="M9.5 1.71074C12.0383 1.71074 12.3389 1.72187 13.3371 1.76641C14.2648 1.80723 14.7658 1.96309 15.0998 2.09297C15.5414 2.26367 15.8605 2.47148 16.1908 2.80176C16.5248 3.13574 16.7289 3.45117 16.8996 3.89277C17.0295 4.22676 17.1854 4.73145 17.2262 5.65547C17.2707 6.65742 17.2818 6.95801 17.2818 9.49258C17.2818 12.0309 17.2707 12.3314 17.2262 13.3297C17.1854 14.2574 17.0295 14.7584 16.8996 15.0924C16.7289 15.534 16.5211 15.8531 16.1908 16.1834C15.8568 16.5174 15.5414 16.7215 15.0998 16.8922C14.7658 17.0221 14.2611 17.1779 13.3371 17.2188C12.3352 17.2633 12.0346 17.2744 9.5 17.2744C6.96172 17.2744 6.66113 17.2633 5.66289 17.2188C4.73516 17.1779 4.23418 17.0221 3.9002 16.8922C3.45859 16.7215 3.13945 16.5137 2.80918 16.1834C2.4752 15.8494 2.27109 15.534 2.10039 15.0924C1.97051 14.7584 1.81465 14.2537 1.77383 13.3297C1.7293 12.3277 1.71816 12.0271 1.71816 9.49258C1.71816 6.9543 1.7293 6.65371 1.77383 5.65547C1.81465 4.72773 1.97051 4.22676 2.10039 3.89277C2.27109 3.45117 2.47891 3.13203 2.80918 2.80176C3.14316 2.46777 3.45859 2.26367 3.9002 2.09297C4.23418 1.96309 4.73887 1.80723 5.66289 1.76641C6.66113 1.72187 6.96172 1.71074 9.5 1.71074ZM9.5 0C6.9209 0 6.59805 0.0111328 5.58496 0.0556641C4.57559 0.100195 3.88164 0.263477 3.28047 0.497266C2.65332 0.742188 2.12266 1.06504 1.5957 1.5957C1.06504 2.12266 0.742188 2.65332 0.497266 3.27676C0.263477 3.88164 0.100195 4.57187 0.0556641 5.58125C0.0111328 6.59805 0 6.9209 0 9.5C0 12.0791 0.0111328 12.402 0.0556641 13.415C0.100195 14.4244 0.263477 15.1184 0.497266 15.7195C0.742188 16.3467 1.06504 16.8773 1.5957 17.4043C2.12266 17.9312 2.65332 18.2578 3.27676 18.499C3.88164 18.7328 4.57188 18.8961 5.58125 18.9406C6.59434 18.9852 6.91719 18.9963 9.49629 18.9963C12.0754 18.9963 12.3982 18.9852 13.4113 18.9406C14.4207 18.8961 15.1147 18.7328 15.7158 18.499C16.3393 18.2578 16.8699 17.9312 17.3969 17.4043C17.9238 16.8773 18.2504 16.3467 18.4916 15.7232C18.7254 15.1184 18.8887 14.4281 18.9332 13.4188C18.9777 12.4057 18.9889 12.0828 18.9889 9.50371C18.9889 6.92461 18.9777 6.60176 18.9332 5.58867C18.8887 4.5793 18.7254 3.88535 18.4916 3.28418C18.2578 2.65332 17.935 2.12266 17.4043 1.5957C16.8773 1.06875 16.3467 0.742188 15.7232 0.500977C15.1184 0.267187 14.4281 0.103906 13.4188 0.059375C12.402 0.0111328 12.0791 0 9.5 0Z" fill="#FCFCFC"/>
<path d="M9.5 4.62012C6.80586 4.62012 4.62012 6.80586 4.62012 9.5C4.62012 12.1941 6.80586 14.3799 9.5 14.3799C12.1941 14.3799 14.3799 12.1941 14.3799 9.5C14.3799 6.80586 12.1941 4.62012 9.5 4.62012ZM9.5 12.6654C7.75215 12.6654 6.33457 11.2479 6.33457 9.5C6.33457 7.75215 7.75215 6.33457 9.5 6.33457C11.2479 6.33457 12.6654 7.75215 12.6654 9.5C12.6654 11.2479 11.2479 12.6654 9.5 12.6654Z" fill="#FCFCFC"/>
<path d="M15.7121 4.42712C15.7121 5.05798 15.2 5.56638 14.5729 5.56638C13.942 5.56638 13.4336 5.05427 13.4336 4.42712C13.4336 3.79626 13.9457 3.28786 14.5729 3.28786C15.2 3.28786 15.7121 3.79997 15.7121 4.42712Z" fill="#FCFCFC"/>
</g>
</g>
<defs>
<clipPath id="clip0_15_2379">
<rect width="19" height="19" fill="white"/>
</clipPath>
</defs>
</svg>
