<svg width="24" height="24" viewBox="0 0 24 24" fill="none" xmlns="http://www.w3.org/2000/svg">
<g id="logo_icon">
<g id="Discovery">
<path id="Vector" d="M12 0C18.624 0 24.0001 5.37601 24.0001 12C24.0001 18.636 18.624 24.0001 12 24.0001C5.36401 24.0001 0 18.636 0 12C0 5.37601 5.36401 0 12 0ZM16.62 8.05202C16.752 7.63202 16.368 7.23602 15.948 7.36802L9.80403 9.28802C9.55202 9.37202 9.34802 9.56403 9.27602 9.81603L7.35602 15.972C7.22402 16.38 7.62002 16.776 8.02802 16.644L14.148 14.724C14.4 14.652 14.604 14.448 14.676 14.196L16.62 8.05202Z" fill="#610BEF"/>
</g>
</g>
</svg>
