<svg width="19" height="19" viewBox="0 0 19 19" fill="none" xmlns="http://www.w3.org/2000/svg">
<g id="Snap">
<path id="Vector" d="M18.9768 14.3922C18.894 14.1138 18.4976 13.9174 18.4976 13.9174C18.4602 13.8974 18.4266 13.8794 18.399 13.8654C17.7384 13.5408 17.1527 13.1501 16.6597 12.7074C16.2633 12.3508 15.9241 11.9581 15.652 11.5414C15.3187 11.0326 15.1629 10.6079 15.0959 10.3775C15.0584 10.2272 15.0643 10.1671 15.0959 10.089C15.1215 10.0229 15.1984 9.96078 15.2339 9.93073C15.4568 9.77046 15.8157 9.53406 16.0365 9.38981C16.2278 9.2636 16.3915 9.15542 16.4881 9.08731C16.7977 8.86693 17.0107 8.64256 17.135 8.40015C17.2967 8.08762 17.3164 7.74304 17.1902 7.40447C17.0206 6.9477 16.6005 6.67524 16.0661 6.67524C15.9478 6.67524 15.8255 6.68927 15.7033 6.71531C15.3976 6.78343 15.1077 6.89361 14.8652 6.98977C14.8474 6.99779 14.8277 6.98376 14.8297 6.96373C14.8553 6.3527 14.8849 5.53132 14.8178 4.752C14.7587 4.04682 14.6147 3.45181 14.382 2.93294C14.1474 2.41206 13.8417 2.02741 13.6031 1.74895C13.3763 1.4845 12.976 1.09384 12.3725 0.743252C11.5246 0.250422 10.5583 0 9.50128 0C8.44625 0 7.48194 0.250422 6.632 0.743252C5.99306 1.11388 5.58485 1.53258 5.39948 1.74895C5.16087 2.02741 4.85521 2.41206 4.62054 2.93294C4.38587 3.45181 4.24388 4.04481 4.18472 4.752C4.11767 5.53532 4.14528 6.2906 4.17289 6.96373C4.17289 6.98376 4.15514 6.99779 4.13542 6.98977C3.89286 6.89361 3.60298 6.78343 3.29731 6.71531C3.17702 6.68927 3.05476 6.67524 2.93446 6.67524C2.40202 6.67524 1.98198 6.9477 1.81041 7.40447C1.6842 7.74304 1.70392 8.08762 1.86563 8.40015C1.99184 8.64256 2.20284 8.86693 2.51245 9.08731C2.60711 9.15542 2.77276 9.2636 2.96404 9.38981C3.17899 9.53205 3.52804 9.76244 3.75285 9.92071C3.78046 9.94074 3.87512 10.0129 3.9047 10.089C3.93625 10.1691 3.94216 10.2292 3.90075 10.3895C3.83173 10.6219 3.67594 11.0426 3.34859 11.5414C3.07645 11.9601 2.73726 12.3508 2.34089 12.7074C1.84788 13.1501 1.26219 13.5408 0.601567 13.8654C0.570014 13.8814 0.532546 13.8994 0.493106 13.9234C0.493106 13.9234 0.0987022 14.1278 0.0237655 14.3922C-0.0866675 14.7829 0.207163 15.1495 0.504938 15.3458C0.993998 15.6664 1.58955 15.8387 1.93465 15.9328C2.03128 15.9589 2.11805 15.9829 2.19693 16.007C2.24623 16.023 2.37047 16.0711 2.42371 16.1412C2.49076 16.2293 2.49865 16.3375 2.52231 16.4597C2.55978 16.6661 2.64458 16.9205 2.89502 17.0968C3.17111 17.2891 3.52015 17.3031 3.96386 17.3212C4.42728 17.3392 5.00311 17.3612 5.66373 17.5836C5.9694 17.6858 6.24745 17.8601 6.56692 18.0604C7.2374 18.4791 8.07157 19 9.49537 19C10.9211 19 11.7612 18.4771 12.4356 18.0564C12.7551 17.8581 13.0292 17.6858 13.329 17.5856C13.9896 17.3632 14.5654 17.3412 15.0288 17.3232C15.4726 17.3051 15.8216 17.2931 16.0977 17.0988C16.3659 16.9105 16.4428 16.63 16.4783 16.4197C16.498 16.3155 16.5098 16.2213 16.569 16.1452C16.6203 16.0791 16.7346 16.033 16.7879 16.015C16.8687 15.9889 16.9595 15.9649 17.06 15.9368C17.4051 15.8427 17.839 15.7325 18.3655 15.43C19.0005 15.0634 19.0439 14.6146 18.9768 14.3922Z" fill="#FCFCFC"/>
</g>
</svg>
